<svg version="1.1" xmlns="http://www.w3.org/2000/svg" xmlns:xlink="http://www.w3.org/1999/xlink" width="512.000000pt" height="512.000000pt" viewBox="0,0,256,256"><g fill="#ffffff" fill-rule="nonzero" stroke="none" stroke-width="1" stroke-linecap="butt" stroke-linejoin="miter" stroke-miterlimit="10" stroke-dasharray="" stroke-dashoffset="0" font-family="none" font-weight="none" font-size="none" text-anchor="none" style="mix-blend-mode: normal"><g transform="translate(-0.12146,0.13252) scale(0.5,0.5)"><g transform="translate(0,512) scale(0.1,-0.1)"><path d="M2321,5109c-486,-43 -989,-249 -1376,-564c-114,-92 -294,-274 -384,-387c-229,-287 -417,-675 -495,-1023c-49,-218 -60,-325 -60,-575c0,-250 11,-357 60,-575c79,-355 272,-749 509,-1040c92,-114 274,-294 387,-384c287,-229 675,-417 1023,-495c218,-49 325,-60 575,-60c250,0 357,11 575,60c261,58 603,204 828,353c389,259 688,599 893,1016c165,337 246,658 261,1033c23,598 -168,1183 -545,1672c-84,109 -323,348 -432,432c-528,407 -1164,595 -1819,537zM2810,4740c498,-60 949,-279 1300,-630c351,-351 570,-802 630,-1300c13,-110 13,-392 0,-500c-127,-1020 -910,-1803 -1930,-1930c-108,-13 -390,-13 -500,0c-498,60 -949,279 -1300,630c-351,351 -570,802 -630,1300c-13,109 -13,391 0,500c60,498 279,949 630,1300c346,346 799,568 1285,629c100,12 415,13 515,1z"></path><path d="M3685,3900c-16,-4 -391,-187 -832,-408c-604,-303 -806,-408 -821,-429c-11,-15 -199,-386 -417,-823c-374,-747 -398,-798 -398,-848c0,-97 80,-174 181,-174c42,0 131,42 842,397c437,219 808,406 823,417c21,15 127,219 434,831c381,763 406,815 406,865c0,43 -6,61 -29,94c-43,62 -122,94 -189,78zM3103,2895l-208,-415l-207,207l-208,208l412,207c227,114 414,207 415,207c2,1 -90,-186 -204,-414zM2637,2224c-1,-1 -188,-95 -414,-208l-413,-206l207,415l208,415l207,-207c114,-114 206,-208 205,-209z"></path></g></g></g></svg>