<svg version="1.1" xmlns="http://www.w3.org/2000/svg" xmlns:xlink="http://www.w3.org/1999/xlink" width="512.000000pt" height="512.000000pt" viewBox="0,0,256,256"><g fill="#ffffff" fill-rule="nonzero" stroke="none" stroke-width="1" stroke-linecap="butt" stroke-linejoin="miter" stroke-miterlimit="10" stroke-dasharray="" stroke-dashoffset="0" font-family="none" font-weight="none" font-size="none" text-anchor="none" style="mix-blend-mode: normal"><g transform="translate(0.01453,-0.0218) scale(0.5,0.5)"><g transform="translate(0,512) scale(0.1,-0.1)"><path d="M447,4948c-24,-8 -47,-48 -157,-269l-130,-259v-2105v-2106l25,-24l24,-25h271h271l24,25c24,24 25,28 25,181c0,121 3,155 13,151c6,-3 48,-22 92,-41c44,-20 105,-41 137,-48c55,-11 56,-12 62,-51c13,-78 69,-153 146,-193c49,-26 171,-26 220,0c49,25 98,74 121,119c11,20 26,82 34,138c13,94 16,103 52,142c134,146 213,328 363,842c85,292 123,405 169,508c109,242 260,343 436,292c50,-14 70,-28 130,-88c115,-117 166,-237 305,-712c88,-303 132,-435 180,-545c106,-244 248,-397 420,-456c44,-15 82,-19 190,-18c166,2 251,22 398,95c90,44 116,63 201,147c177,176 282,379 366,707c113,441 159,1188 96,1546c-111,620 -483,1139 -1057,1474c-656,383 -1531,452 -2256,177l-103,-39l-60,63c-65,69 -98,80 -142,49c-38,-26 -209,-232 -278,-333c-45,-67 -90,-117 -150,-169l-85,-73v185v185l-129,259c-119,236 -133,260 -162,270c-18,6 -32,11 -33,10c-1,0 -14,-5 -29,-11zM538,4585l52,-105h-110h-110l52,105c29,58 55,105 58,105c3,0 29,-47 58,-105zM2918,4535c915,-134 1618,-717 1823,-1513c49,-191 62,-339 55,-627c-15,-615 -91,-1040 -245,-1359c-112,-231 -259,-374 -456,-442c-72,-25 -94,-28 -215,-28c-117,-1 -141,2 -180,21c-114,53 -191,140 -271,308c-63,132 -93,221 -199,585c-121,413 -174,548 -271,691c-44,65 -136,152 -190,180c-95,48 -219,61 -322,34c-90,-23 -136,-52 -217,-134c-132,-134 -199,-285 -346,-787c-51,-177 -107,-357 -123,-400c-42,-113 -73,-185 -78,-180c-2,2 35,323 84,712l87,709l1,240c0,187 -4,264 -18,350c-24,146 -69,322 -112,440l-35,96l34,67c87,172 129,359 109,478c-14,80 -74,208 -148,316c-30,44 -55,83 -55,87c0,15 197,79 350,115c95,22 263,49 380,60c90,8 458,-4 558,-19zM1439,4351c93,-113 165,-219 204,-301c28,-58 32,-75 31,-150c-1,-98 -18,-166 -77,-292l-40,-88h-197h-197l-40,88c-59,126 -76,194 -77,292c-1,75 3,92 31,150c17,36 53,98 81,139c55,82 192,251 202,251c4,0 39,-40 79,-89zM640,2520v-1800h-160h-160v1800v1800h160h160zM930,3658c16,-48 45,-118 64,-156l35,-70l-34,-96c-43,-119 -88,-296 -112,-441c-14,-86 -18,-163 -18,-350l1,-240l102,-830c56,-456 104,-843 107,-859c5,-28 4,-28 -27,-22c-46,9 -150,59 -203,97l-45,32v1545v1544l37,45l38,46l13,-79c7,-43 26,-118 42,-166zM1573,3288c96,-269 133,-505 125,-800c-4,-139 -28,-362 -122,-1128c-64,-525 -121,-968 -128,-983c-12,-30 -54,-57 -88,-57c-34,0 -76,27 -88,57c-7,15 -64,458 -128,983c-94,766 -118,989 -122,1128c-8,295 29,531 125,800l26,72h187h187zM640,440v-120h-160h-160v120v120h160h160z"></path><path d="M2445,4308c-90,-17 -204,-80 -279,-154c-219,-219 -220,-568 -2,-786c114,-114 233,-163 396,-163c159,0 284,50 391,158c112,112 164,237 164,397c0,162 -49,281 -162,395c-130,132 -320,189 -508,153zM2724,4122c91,-42 149,-100 194,-190c35,-72 37,-81 37,-172c0,-91 -2,-100 -37,-172c-45,-91 -103,-147 -196,-191c-61,-29 -76,-32 -162,-32c-86,0 -101,3 -162,32c-93,44 -151,100 -196,191c-35,72 -37,81 -37,171c0,87 3,102 32,163c40,85 97,147 172,186c78,42 122,52 213,48c61,-3 92,-11 142,-34z"></path><path d="M3725,3508c-90,-17 -204,-80 -279,-154c-219,-219 -220,-568 -2,-786c114,-114 233,-163 396,-163c159,0 284,50 391,158c112,112 164,237 164,397c0,162 -49,281 -162,395c-130,132 -320,189 -508,153zM4004,3322c91,-42 149,-100 194,-190c35,-72 37,-81 37,-172c0,-91 -2,-100 -37,-172c-45,-91 -103,-147 -196,-191c-61,-29 -76,-32 -162,-32c-86,0 -101,3 -162,32c-93,44 -151,100 -196,191c-35,72 -37,81 -37,171c0,87 3,102 32,163c40,85 97,147 172,186c78,42 122,52 213,48c61,-3 92,-11 142,-34z"></path><path d="M3961,2064c-253,-68 -410,-331 -346,-579c67,-256 329,-415 580,-350c256,67 415,329 350,578c-67,259 -333,419 -584,351zM4231,1879c67,-36 98,-68 137,-143c22,-43 26,-64 26,-136c1,-78 -2,-90 -33,-148c-38,-70 -70,-100 -145,-140c-43,-22 -64,-26 -136,-26c-72,0 -93,4 -136,26c-75,40 -107,70 -145,140c-31,58 -34,70 -33,148c0,100 24,160 89,225c100,100 249,121 376,54z"></path></g></g></g></svg>