<svg version="1.1" xmlns="http://www.w3.org/2000/svg" xmlns:xlink="http://www.w3.org/1999/xlink" width="512.000000pt" height="512.000000pt" viewBox="0,0,256,256"><g fill="#ffffff" fill-rule="nonzero" stroke="none" stroke-width="1" stroke-linecap="butt" stroke-linejoin="miter" stroke-miterlimit="10" stroke-dasharray="" stroke-dashoffset="0" font-family="none" font-weight="none" font-size="none" text-anchor="none" style="mix-blend-mode: normal"><g transform="translate(-0.03965,0.00654) scale(0.5,0.5)"><g transform="translate(0,512) scale(0.1,-0.1)"><path d="M340,5109c-119,-23 -245,-123 -296,-234c-109,-236 6,-500 255,-587c43,-15 76,-19 144,-16l89,3l114,-239c63,-132 114,-243 114,-247c0,-5 -27,-26 -59,-49c-274,-186 -440,-498 -441,-830c0,-332 131,-599 407,-830l42,-35l-77,-137c-57,-103 -81,-136 -92,-132c-8,4 -47,9 -85,11c-220,16 -410,-137 -447,-360c-28,-171 67,-358 222,-437c237,-120 517,-5 600,246c18,54 22,82 18,153c-5,101 -33,171 -99,247c-21,25 -39,49 -39,55c0,16 149,274 157,272c4,-1 41,-14 81,-27c180,-63 404,-73 582,-27c92,24 242,91 313,140c24,16 48,31 53,33c11,4 334,-346 334,-361c0,-6 -13,-25 -29,-43c-157,-181 -255,-483 -235,-728l7,-78l-39,-11c-62,-16 -340,-81 -347,-81c-3,0 -22,25 -43,55c-74,113 -186,176 -322,183c-158,8 -277,-47 -369,-172c-188,-255 -37,-615 280,-668c226,-37 443,124 480,358c11,73 12,75 47,84c83,22 333,80 345,80c7,0 19,-17 25,-38c7,-20 30,-71 52,-112c250,-470 801,-671 1292,-471c301,123 528,387 609,711c16,66 21,116 21,225c0,177 -28,312 -91,439c-14,27 -21,52 -16,56c10,10 448,296 474,311c15,8 28,3 65,-25c68,-52 145,-79 241,-84c127,-6 229,35 321,128c239,243 99,656 -242,712c-205,34 -402,-92 -471,-300c-17,-52 -17,-79 -3,-250c3,-32 0,-34 -242,-192l-245,-159l-50,56c-62,70 -175,161 -260,208c-36,20 -65,41 -65,47c0,13 401,1131 410,1140c3,4 21,3 40,-2c19,-6 80,-15 135,-21c300,-31 614,86 827,309c379,398 383,1007 8,1406c-388,414 -1026,434 -1444,46c-59,-54 -151,-174 -196,-253c-24,-42 -37,-56 -49,-52c-9,3 -68,24 -131,48l-115,43l-2,44c-5,82 -25,164 -53,220c-80,156 -269,252 -440,222c-171,-31 -304,-150 -346,-312c-53,-204 57,-422 254,-502c47,-19 76,-23 162,-23c99,0 110,2 171,32c64,32 139,94 171,141l15,22l134,-50c73,-28 134,-52 136,-54c2,-2 -4,-34 -14,-72c-26,-105 -23,-313 6,-427c13,-49 21,-90 19,-92c-7,-6 -931,-396 -933,-393c-1,2 -23,36 -49,75c-191,292 -508,464 -856,464c-114,0 -227,-17 -312,-47c-23,-8 -45,-11 -49,-7c-9,9 -229,470 -229,479c0,4 21,29 47,58c71,79 106,162 111,267c3,65 0,100 -13,140c-72,218 -275,341 -495,298zM537,4921c87,-44 134,-117 141,-217c7,-104 -46,-192 -143,-240c-123,-59 -272,-7 -336,118c-87,170 52,378 242,364c30,-2 74,-13 96,-25zM2586,4922c156,-80 190,-285 67,-408c-56,-56 -89,-69 -178,-69c-69,0 -86,4 -126,27c-196,115 -160,397 61,469c40,13 133,3 176,-19zM4308,4921c250,-66 452,-236 561,-473c59,-128 76,-210 75,-363c-1,-111 -5,-143 -28,-220c-30,-100 -89,-219 -140,-283l-35,-43l-30,58c-54,108 -160,213 -268,266l-42,20l28,36c236,300 -21,740 -396,681c-221,-35 -380,-237 -360,-455c8,-79 29,-135 76,-204l39,-57l-53,-28c-100,-52 -199,-152 -253,-253c-15,-29 -31,-52 -37,-50c-19,6 -104,141 -135,215c-44,105 -62,200 -62,327c-1,130 18,226 64,333c118,273 354,458 655,512c73,14 258,3 341,-19zM4200,4414c154,-65 198,-284 82,-408c-98,-105 -291,-99 -382,12c-99,120 -73,279 63,382c52,39 161,45 237,14zM1454,3735c302,-62 544,-283 642,-585c25,-77 28,-99 28,-240c1,-133 -2,-166 -22,-234c-27,-94 -99,-238 -146,-292l-33,-39l-33,65c-41,83 -172,215 -247,249c-29,14 -53,28 -53,32c0,4 11,21 25,37c14,17 38,57 53,89c24,52 27,69 27,168c0,108 -1,113 -37,186c-110,222 -377,305 -589,185c-150,-86 -238,-268 -209,-435c14,-80 30,-120 75,-182c39,-55 41,-59 21,-59c-27,0 -166,-101 -212,-155c-25,-30 -60,-82 -78,-115l-33,-62l-32,39c-46,56 -117,198 -143,289c-20,68 -23,101 -22,234c0,141 3,163 28,240c97,299 338,520 636,584c87,19 264,20 354,1zM4344,3721c42,-17 78,-43 126,-90c68,-67 99,-115 118,-184c10,-37 10,-37 -34,-68c-126,-86 -286,-133 -459,-132c-164,0 -293,34 -427,114c-80,47 -82,55 -39,146c51,108 137,183 256,225c42,15 79,18 225,15c157,-2 181,-5 234,-26zM3245,3530c85,-130 258,-284 390,-347c25,-12 34,-22 29,-32c-3,-9 -93,-257 -199,-551c-106,-294 -198,-547 -203,-561l-11,-27l-63,13c-258,53 -528,3 -746,-138c-40,-26 -75,-47 -77,-47c-2,0 -79,82 -170,181l-165,182l25,31c53,64 134,194 164,264c54,122 73,212 78,367c5,131 -5,219 -38,343c-3,10 142,76 461,212c256,108 468,195 471,191c3,-3 28,-40 54,-81zM1380,3219c60,-27 98,-64 126,-124c68,-142 -13,-316 -163,-354c-56,-15 -80,-14 -142,5c-134,39 -208,191 -162,328c44,130 215,202 341,145zM1463,2545c85,-22 134,-51 199,-116c59,-58 104,-138 110,-193c3,-26 -3,-32 -79,-76c-147,-84 -286,-117 -463,-107c-125,8 -197,25 -308,77c-102,48 -142,76 -142,99c0,10 16,50 35,88c57,114 161,200 280,229c73,18 298,17 368,-1zM4784,2370c138,-52 203,-218 137,-348c-44,-86 -117,-133 -217,-140c-103,-7 -191,45 -238,140c-69,138 0,300 151,354c54,19 104,17 167,-6zM3200,1849c247,-63 450,-234 559,-471c59,-127 76,-210 75,-363c0,-149 -21,-241 -80,-358c-31,-61 -111,-187 -120,-187c-1,0 -18,28 -35,62c-44,83 -174,213 -252,251l-57,28l34,45c59,77 80,145 80,254c0,114 -24,185 -88,263c-141,175 -385,210 -573,84c-62,-42 -125,-121 -154,-194c-19,-46 -23,-77 -23,-153c0,-109 21,-177 80,-254l34,-45l-57,-28c-76,-37 -209,-168 -249,-245c-16,-32 -33,-57 -39,-55c-20,6 -105,141 -135,213c-85,204 -85,449 0,655c84,203 268,385 469,464c61,23 172,51 241,59c64,7 214,-6 290,-25zM509,1605c59,-20 108,-61 139,-114c23,-40 27,-57 27,-126c0,-89 -13,-122 -69,-178c-123,-123 -326,-90 -409,67c-30,57 -30,165 0,221c61,117 194,172 312,130zM3107,1331c86,-44 128,-116 128,-221c0,-88 -22,-137 -81,-190c-52,-45 -99,-62 -169,-62c-72,0 -119,18 -173,66c-129,117 -99,332 56,411c73,36 163,35 239,-4zM1308,824c203,-101 178,-404 -39,-468c-66,-20 -82,-20 -148,0c-99,29 -181,135 -181,235c0,193 197,318 368,233zM3240,644c116,-55 207,-160 238,-275l10,-37l-72,-40c-161,-92 -253,-117 -436,-116c-117,1 -147,5 -223,28c-143,43 -267,113 -267,150c0,36 57,143 101,191c48,52 109,91 184,117c42,15 78,18 225,16c173,-3 176,-3 240,-34z"></path></g></g></g></svg>